<svg xmlns="http://www.w3.org/2000/svg">    <line x1="205.000000" y1="86.000000" x2="240.000000" y2="234.000000" stroke="#000000" stroke-width="4" />    <line x1="230.000000" y1="329.000000" x2="240.000000" y2="329.000000" stroke="#000000" stroke-width="4" />   <polygon points="490.0,126.0 489.94521895368274,127.04528463267654 489.78147600733803,128.07911690817758 489.51056516295154,129.0901699437495 489.135454576426,130.067366430758 488.66025403784437,131.0 488.09016994374946,131.87785252292474 487.43144825477395,132.69130606358857 486.69130606358857,133.43144825477395 485.87785252292474,134.0901699437495 485.0,134.6602540378444 484.067366430758,135.135454576426 483.09016994374946,135.51056516295154 482.0791169081776,135.78147600733806 481.04528463267656,135.94521895368274 480.0,136.0 478.95471536732344,135.94521895368274 477.9208830918224,135.78147600733806 476.90983005625054,135.51056516295154 475.932633569242,135.135454576426 475.0,134.6602540378444 474.12214747707526,134.0901699437495 473.30869393641143,133.43144825477395 472.56855174522605,132.69130606358857 471.90983005625054,131.87785252292474 471.33974596215563,131.0 470.864545423574,130.067366430758 470.48943483704846,129.0901699437495 470.21852399266197,128.07911690817758 470.05478104631726,127.04528463267653 470.0,126.0 470.05478104631726,124.95471536732347 470.21852399266197,123.9208830918224 470.48943483704846,122.90983005625053 470.864545423574,121.932633569242 471.33974596215563,121.0 471.90983005625054,120.12214747707527 472.56855174522605,119.30869393641142 473.30869393641143,118.56855174522606 474.12214747707526,117.90983005625053 475.0,117.33974596215562 475.932633569242,116.864545423574 476.90983005625054,116.48943483704846 477.9208830918224,116.21852399266194 478.95471536732344,116.05478104631726 480.0,116.0 481.04528463267656,116.05478104631726 482.0791169081776,116.21852399266194 483.09016994374946,116.48943483704846 484.067366430758,116.86454542357399 485.0,117.33974596215562 485.87785252292474,117.90983005625053 486.69130606358857,118.56855174522606 487.43144825477395,119.30869393641142 488.09016994374946,120.12214747707526 488.66025403784437,121.0 489.135454576426,121.932633569242 489.51056516295154,122.90983005625053 489.78147600733803,123.9208830918224 489.94521895368274,124.95471536732346 490.0,125.99999999999999 " style="fill:#0000FF;stroke:#000000;stroke-width:1" />   <polygon points="97.0,136.0 96.94521895368274,137.04528463267653 96.78147600733806,138.07911690817758 96.51056516295154,139.0901699437495 96.13545457642601,140.067366430758 95.66025403784438,141.0 95.09016994374947,141.87785252292474 94.43144825477394,142.69130606358857 93.69130606358858,143.43144825477395 92.87785252292473,144.0901699437495 92.0,144.6602540378444 91.067366430758,145.135454576426 90.09016994374947,145.51056516295154 89.0791169081776,145.78147600733806 88.04528463267654,145.94521895368274 87.0,146.0 85.95471536732347,145.94521895368274 84.9208830918224,145.78147600733806 83.90983005625053,145.51056516295154 82.932633569242,145.135454576426 82.0,144.6602540378444 81.12214747707527,144.0901699437495 80.30869393641142,143.43144825477395 79.56855174522606,142.69130606358857 78.90983005625053,141.87785252292474 78.33974596215562,141.0 77.86454542357399,140.067366430758 77.48943483704846,139.0901699437495 77.21852399266194,138.07911690817758 77.05478104631726,137.04528463267653 77.0,136.0 77.05478104631726,134.95471536732347 77.21852399266194,133.92088309182242 77.48943483704846,132.90983005625054 77.86454542357399,131.932633569242 78.3397459621556,131.0 78.90983005625053,130.12214747707526 79.56855174522606,129.30869393641143 80.30869393641142,128.56855174522605 81.12214747707527,127.90983005625053 82.0,127.33974596215562 82.93263356924199,126.864545423574 83.90983005625053,126.48943483704846 84.9208830918224,126.21852399266194 85.95471536732346,126.05478104631726 87.0,126.0 88.04528463267653,126.05478104631726 89.0791169081776,126.21852399266194 90.09016994374947,126.48943483704846 91.067366430758,126.86454542357399 92.0,127.33974596215562 92.87785252292473,127.90983005625053 93.69130606358858,128.56855174522605 94.43144825477394,129.30869393641143 95.09016994374947,130.12214747707526 95.6602540378444,131.0 96.13545457642601,131.932633569242 96.51056516295154,132.9098300562505 96.78147600733806,133.92088309182242 96.94521895368274,134.95471536732347 97.0,136.0 " style="fill:#0000FF;stroke:#000000;stroke-width:1" />   <polygon points="138.0,277.0 137.94521895368274,278.04528463267656 137.78147600733806,279.0791169081776 137.51056516295154,280.09016994374946 137.135454576426,281.067366430758 136.6602540378444,282.0 136.0901699437495,282.87785252292474 135.43144825477395,283.69130606358857 134.69130606358857,284.43144825477395 133.87785252292474,285.09016994374946 133.0,285.66025403784437 132.067366430758,286.135454576426 131.0901699437495,286.51056516295154 130.07911690817758,286.78147600733803 129.04528463267653,286.94521895368274 128.0,287.0 126.95471536732347,286.94521895368274 125.9208830918224,286.78147600733803 124.90983005625053,286.51056516295154 123.932633569242,286.135454576426 123.0,285.66025403784437 122.12214747707527,285.09016994374946 121.30869393641142,284.43144825477395 120.56855174522606,283.69130606358857 119.90983005625053,282.87785252292474 119.33974596215562,282.0 118.86454542357399,281.067366430758 118.48943483704846,280.09016994374946 118.21852399266194,279.0791169081776 118.05478104631726,278.04528463267656 118.0,277.0 118.05478104631726,275.95471536732344 118.21852399266194,274.9208830918224 118.48943483704846,273.90983005625054 118.86454542357399,272.932633569242 119.3397459621556,272.0 119.90983005625053,271.12214747707526 120.56855174522606,270.30869393641143 121.30869393641142,269.56855174522605 122.12214747707527,268.90983005625054 123.0,268.33974596215563 123.93263356924199,267.864545423574 124.90983005625053,267.48943483704846 125.9208830918224,267.21852399266197 126.95471536732346,267.05478104631726 128.0,267.0 129.04528463267653,267.05478104631726 130.07911690817758,267.21852399266197 131.09016994374946,267.48943483704846 132.067366430758,267.864545423574 133.0,268.33974596215563 133.87785252292474,268.90983005625054 134.69130606358857,269.56855174522605 135.43144825477395,270.30869393641143 136.09016994374946,271.12214747707526 136.6602540378444,272.0 137.135454576426,272.932633569242 137.51056516295154,273.90983005625054 137.78147600733806,274.9208830918224 137.94521895368274,275.95471536732344 138.0,277.0 " style="fill:#0000FF;stroke:#000000;stroke-width:1" />   <polygon points="160.0,312.0 159.94521895368274,313.04528463267656 159.78147600733806,314.0791169081776 159.51056516295154,315.09016994374946 159.135454576426,316.067366430758 158.6602540378444,317.0 158.0901699437495,317.87785252292474 157.43144825477395,318.69130606358857 156.69130606358857,319.43144825477395 155.87785252292474,320.09016994374946 155.0,320.66025403784437 154.067366430758,321.135454576426 153.0901699437495,321.51056516295154 152.07911690817758,321.78147600733803 151.04528463267653,321.94521895368274 150.0,322.0 148.95471536732347,321.94521895368274 147.92088309182242,321.78147600733803 146.9098300562505,321.51056516295154 145.932633569242,321.135454576426 145.0,320.66025403784437 144.12214747707526,320.09016994374946 143.30869393641143,319.43144825477395 142.56855174522605,318.69130606358857 141.90983005625054,317.87785252292474 141.3397459621556,317.0 140.864545423574,316.067366430758 140.48943483704846,315.09016994374946 140.21852399266194,314.0791169081776 140.05478104631726,313.04528463267656 140.0,312.0 140.05478104631726,310.95471536732344 140.21852399266194,309.9208830918224 140.48943483704846,308.90983005625054 140.864545423574,307.932633569242 141.3397459621556,307.0 141.9098300562505,306.12214747707526 142.56855174522605,305.30869393641143 143.30869393641143,304.56855174522605 144.12214747707526,303.90983005625054 145.0,303.33974596215563 145.932633569242,302.864545423574 146.9098300562505,302.48943483704846 147.9208830918224,302.21852399266197 148.95471536732344,302.05478104631726 150.0,302.0 151.04528463267653,302.05478104631726 152.07911690817758,302.21852399266197 153.09016994374946,302.48943483704846 154.067366430758,302.864545423574 155.0,303.33974596215563 155.87785252292474,303.90983005625054 156.69130606358857,304.56855174522605 157.43144825477395,305.30869393641143 158.09016994374946,306.12214747707526 158.6602540378444,307.0 159.135454576426,307.932633569242 159.51056516295154,308.90983005625054 159.78147600733806,309.9208830918224 159.94521895368274,310.95471536732344 160.0,312.0 " style="fill:#0000FF;stroke:#000000;stroke-width:1" /></svg>